# xmcd
#
# Track frame offsets: 
#        150
#        12768
#        40963
#        58867
#        77529
#        98936
#        122188
#        138820
#        151857
#        157063
#        179543
#
# Disc length: 2774 seconds
#
# Revision: 0
# Processed by: cddbd v1.5.2PL0 Copyright (c) Steve Scherf et al.
# Submitted via: ExactAudioCopy v1.3
#
DISCID=890ad40b
DTITLE="Sir" Oliver Mally - Overdue
DYEAR=2020
DGENRE=Blues
TTITLE0=Mainstreet Blues
TTITLE1=Cracks in the Mirror
TTITLE2=Butterfly Girl
TTITLE3=Sweet and Fine
TTITLE4=Meet Me in the Alley
TTITLE5=Sittin' Here Wonderin'
TTITLE6=My Old Friend the Blues
TTITLE7=I.D.C.A.A.
TTITLE8=Gin-Ology
TTITLE9=Got Some Nasty Habits
TTITLE10=Time
EXTD=
EXTT0=
EXTT1=
EXTT2=
EXTT3=
EXTT4=
EXTT5=
EXTT6=
EXTT7=
EXTT8=
EXTT9=
EXTT10=
PLAYORDER=
